<?xml version="1.0" standalone="no"?>
<!DOCTYPE svg PUBLIC "-//W3C//DTD SVG 20010904//EN"
 "http://www.w3.org/TR/2001/REC-SVG-20010904/DTD/svg10.dtd">
<svg version="1.0" xmlns="http://www.w3.org/2000/svg"
 width="260.000000pt" height="260.000000pt" viewBox="0 0 260.000000 260.000000"
 preserveAspectRatio="xMidYMid meet">
<metadata>
Created by potrace 1.11, written by Peter Selinger 2001-2013
</metadata>
<g transform="translate(0.000000,260.000000) scale(0.100000,-0.100000)"
fill="#000000" stroke="none">
<path d="M2095 2380 c-22 -5 -55 -11 -73 -14 -88 -16 -175 -38 -247 -61 -99
-31 -73 -27 120 19 83 20 171 39 198 42 26 4 47 10 47 15 0 5 -1 9 -2 8 -2 -1
-21 -5 -43 -9z"/>
<path d="M2312 2316 c-31 -11 -37 -21 -72 -113 -21 -55 -50 -121 -64 -146 -63
-107 -164 -191 -287 -239 -32 -13 -59 -26 -59 -31 0 -4 9 -3 19 3 11 5 28 10
38 10 31 0 236 107 273 143 77 73 122 150 174 295 36 101 37 100 -22 78z"/>
<path d="M1557 2230 c-65 -27 -139 -61 -164 -75 -24 -15 -47 -25 -49 -22 -3 2
28 21 68 42 79 40 100 55 79 55 -25 0 -348 -180 -491 -274 -296 -194 -490
-429 -490 -593 0 -39 2 -39 72 -13 l53 21 1 67 c0 55 6 78 32 129 56 109 163
227 302 332 79 60 196 141 204 141 2 0 37 20 77 45 41 25 79 43 86 41 21 -8
112 23 166 58 29 18 72 41 97 52 89 40 95 43 85 43 -5 0 -63 -22 -128 -49z"/>
<path d="M1905 2096 c-126 -41 -399 -191 -545 -298 -249 -184 -541 -541 -694
-846 -112 -224 -277 -635 -301 -749 l-6 -32 48 16 c63 21 69 27 77 72 20 127
142 455 253 676 120 242 310 504 502 694 185 182 328 281 586 407 144 71 167
88 80 60z"/>
<path d="M1960 1768 c-47 -13 -56 -21 -84 -84 -45 -99 -139 -229 -221 -307
-22 -21 -73 -59 -112 -84 -40 -26 -73 -50 -73 -54 0 -17 97 24 173 74 96 63
141 106 212 202 49 67 155 243 155 258 0 9 -5 8 -50 -5z"/>
<path d="M364 1405 c-29 -13 -32 -18 -48 -115 -32 -181 -17 -292 60 -426 24
-43 44 -81 44 -86 0 -12 12 -10 73 15 l57 23 -50 68 c-81 111 -117 237 -106
369 3 38 8 72 11 76 2 4 8 26 14 49 10 48 2 52 -55 27z"/>
<path d="M1613 1207 c-18 -7 -63 -43 -100 -81 -119 -121 -264 -219 -448 -303
-82 -37 -234 -83 -276 -83 -16 0 -119 -47 -119 -54 0 -8 140 24 215 49 65 22
265 105 335 140 168 83 371 232 432 318 22 30 14 33 -39 14z"/>
</g>
</svg>
